<?xml version="1.0" encoding="utf-8"?>
<!-- Generator: Adobe Illustrator 26.2.1, SVG Export Plug-In . SVG Version: 6.00 Build 0)  -->
<svg version="1.1" id="Layer_1" xmlns="http://www.w3.org/2000/svg" xmlns:xlink="http://www.w3.org/1999/xlink" x="0px"
	y="0px" viewBox="0 0 500 500" style="enable-background:new 0 0 500 500;" xml:space="preserve">
	<style type="text/css">
		.st0 {
			fill: #5BCAF4;
		}

		.st1 {
			clip-path: url(#SVGID_00000103223092227526419950000002500558671278014655_);
		}

		.st2 {
			fill: #B86028;
		}

		.st3 {
			fill: #FFFFFF;
		}

		.st4 {
			fill: #FAAB47;
		}

		.st5 {
			fill: #FDC57F;
		}

		.st6 {
			fill: #010101;
		}

		.st7 {
			fill: #231F20;
		}

		.st8 {
			fill: none;
			stroke: #B86028;
			stroke-width: 1.2249;
			stroke-linecap: round;
			stroke-linejoin: round;
			stroke-miterlimit: 10;
		}

		.st9 {
			opacity: 0.2;
			fill: none;
		}
	</style>
	<g>
		<circle class="st0" cx="249.67" cy="247.18" r="243.77" />
		<g>
			<defs>
				<circle id="SVGID_1_" cx="249.67" cy="247.18" r="243.77" />
			</defs>
			<clipPath id="SVGID_00000072255001180890966840000000430164923826317706_">
				<use xlink:href="#SVGID_1_" style="overflow:visible;" />
			</clipPath>
			<g style="clip-path:url(#SVGID_00000072255001180890966840000000430164923826317706_);">
				<g>
					<g>
						<ellipse class="st2" cx="346.94" cy="125.74" rx="44.62" ry="45.66" />
						<g>
							<ellipse class="st3" cx="341.41" cy="133" rx="25.36" ry="25.95" />
						</g>
					</g>
					<g>
						<ellipse class="st2" cx="146.95" cy="125.74" rx="44.62" ry="45.66" />
						<ellipse class="st3" cx="152.48" cy="133" rx="25.36" ry="25.95" />
					</g>
					<path class="st4" d="M375.59,445.96c-1.09-23.22-2.76-37.99-5.84-61.11c-2.85-21.36-15.22-48.72-26.27-66.17
					c-7.57-13.53-28.33-13.76-45.95-15.35c-12.48-1.13-31.08,1.7-40.72,10.22c-4.31,3.81-7.6,8.03-9.87,12.65
					c-2.27-4.61-5.55-8.83-9.87-12.65c-9.64-8.52-28.24-11.35-40.72-10.22c-17.62,1.59-38.38,1.82-45.95,15.35
					c-11.05,17.45-23.43,44.81-26.27,66.17c-3.08,23.12-4.75,37.9-5.84,61.11c-0.66,14.07-0.76,29.2,0.97,43.03
					c1.25,10,1.51,10.33,12.61,11.69c13.42,1.65,27.86,1.94,41.41,1.91c21.88-0.05,50.59,2.63,73.67,2.17
					c23.08,0.47,51.78-2.22,73.67-2.17c13.54,0.03,27.99-0.26,41.41-1.91c11.1-1.37,11.36-1.7,12.61-11.69
					C376.35,475.16,376.25,460.03,375.59,445.96z" />
					<path class="st5" d="M177.16,437.39c0-39.64,39.53-84.33,61.07-100.41c1.74-1.3,3.35-1.99,6.11-1.99s4.37,0.69,6.11,1.99
					c21.54,16.08,61.07,60.77,61.07,100.41c0,9.32,0.55,21.47-10.62,24.42c-11.67,3.09-20.03-9.63-27.36-16.09
					c-1.57,11.34,1.2,21.84-6.12,31.9c-5.01,6.89-14.32,12.44-22.8,12.17c0,0,0,0.01,0,0.01c-0.09,0.01-0.19-0.01-0.28-0.01
					c-0.09,0-0.19,0.01-0.28,0.01c0,0,0-0.01,0-0.01c-8.48,0.27-17.78-5.28-22.8-12.17c-7.32-10.06-4.55-20.56-6.12-31.9
					c-7.33,6.45-15.69,19.17-27.36,16.09C176.6,458.87,177.16,446.72,177.16,437.39z" />
					<path id="XMLID_4_" class="st4" d="M245.6,98.07c0,0,26.29-2.77,58.8,9.68s48.42,35.28,59.49,56.03
					c11.07,20.75,14.53,51.19,14.53,51.19s35.28,13.83,48.42,24.21c13.14,10.38,13.14,10.38,13.14,10.38l-38.74,11.07
					c0,0,16.6,20.06,21.44,26.29c4.84,6.23,6.92,11.07,6.92,11.07h-32.51c0,0,14.53,22.83,17.29,34.59
					c2.77,11.76,2.08,21.44,2.08,21.44s-31.13-12.45-70.56-10.38c-39.43,2.08-64.33,27.67-79.55,33.9
					c-15.22,6.23-20.75,4.84-20.75,4.84V98.07z" />
					<path id="XMLID_6_" class="st4" d="M248.29,98.07c0,0-26.29-2.77-58.8,9.68s-48.42,35.28-59.49,56.03s-14.53,51.19-14.53,51.19
					s-35.28,13.83-48.42,24.21c-13.14,10.38-13.14,10.38-13.14,10.38l38.74,11.07c0,0-16.6,20.06-21.44,26.29
					c-4.84,6.23-6.92,11.07-6.92,11.07H96.8c0,0-14.53,22.83-17.29,34.59c-2.77,11.76-2.08,21.44-2.08,21.44
					s31.13-12.45,70.56-10.38c39.43,2.08,64.33,27.67,79.55,33.9c15.22,6.23,20.75,4.84,20.75,4.84V98.07z" />
					<path class="st3" d="M414.39,332.57c-2.24-9.53-12.2-26.31-15.9-32.34c-32.1-36.71-100.09-42.17-151.54-40.05
					c-51.45-2.12-119.44,3.34-151.54,40.05c-3.7,6.03-13.66,22.82-15.9,32.34c-2.77,11.76-2.08,21.44-2.08,21.44
					s31.13-12.45,70.56-10.38c39.43,2.08,64.33,27.67,79.55,33.9c11.06,4.52,16.99,5.03,19.41,4.97c2.42,0.06,8.35-0.44,19.41-4.97
					c15.22-6.23,40.12-31.82,79.55-33.9c39.43-2.08,70.56,10.38,70.56,10.38S417.15,344.33,414.39,332.57z" />
					<g>
						<path class="st6" d="M342.99,221.62c0.14-5.97,9.49-15.34,12.84-20.28c4.11-6.07,8.94-11.98,13.45-17.62
						c0.53-0.66,1.14-1.55,1.81-2.34c3.07,9.62,5.01,19.08,6.11,25.51c-5.47,3.27-13.01,5.53-16.8,7.38
						C354.75,217.04,348.75,219.27,342.99,221.62z" />
						<path class="st6" d="M337.89,189.77c0.61-4.11,19.15-22.55,25.67-26.58c0.11,0.2,0.22,0.4,0.33,0.6c2.14,4.02,4,8.4,5.6,12.86
						c-4.45,2.64-10.31,4.48-14.25,6.39C350.21,185.49,343.46,189.55,337.89,189.77z" />
						<path class="st6" d="M266.34,162.47c-3.8-15.4-5.76-31.58-7.88-47.35c-0.73-5.38-1.23-11.49-2.17-17.24
						c6.42,0.2,15.34,0.99,25.81,3.25c-1.05,11.48-4.21,22.69-7.1,33.86C272.64,144.11,270.63,154.09,266.34,162.47z" />
					</g>
					<g>
						<circle class="st7" cx="292.9" cy="235.94" r="12.74" />
						<circle class="st3" cx="292.9" cy="235.94" r="4.01" />
					</g>
					<path class="st7" d="M247.63,285.22c4.09,0,17.83-1.67,20,2.55c2.36,4.61-7.89,13.59-10.8,15.79c-3.11,2.35-5.38,3.01-8.86,4.53
					C245.71,301.81,249.05,292.7,247.63,285.22z" />
					<g>
						<g>
							<path class="st7"
								d="M247.92,306.42c-1.31,11.5,1.92,23.75,10.87,31.51c4.34,3.76,9.59,5.87,15.27,6.48
							c5.75,0.62,11.77,0.44,17.48-0.51c6.11-1.02,12.08-3.19,16.92-7.14c0.61-0.5-0.18-1.43-0.79-0.93
							c-8.48,6.91-20.24,8.11-30.79,7.58c-3.06-0.16-6.13-0.55-9.04-1.57c-2.41-0.84-4.66-2.07-6.71-3.59
							c-4.18-3.11-7.4-7.38-9.44-12.16c-2.61-6.14-3.22-12.86-2.57-19.44C249.2,305.86,248.01,305.63,247.92,306.42L247.92,306.42z" />
						</g>
					</g>
					<path class="st8" d="M284.16,286.95c42.25-4.01,85.52,3.28,124.12,20.92" />
					<path class="st8" d="M284.04,300.83c51.92,6.89,102.39,24.5,147.33,51.4" />
					<path class="st8" d="M281.86,312.67c57.65,22.5,109.46,59.78,149.1,107.29" />
					<g>
						<path class="st6" d="M150.9,221.62c-0.14-5.97-9.49-15.34-12.84-20.28c-4.11-6.07-8.94-11.98-13.45-17.62
						c-0.53-0.66-1.14-1.55-1.81-2.34c-3.07,9.62-5.01,19.08-6.11,25.51c5.47,3.27,13.01,5.53,16.8,7.38
						C139.14,217.04,145.13,219.27,150.9,221.62z" />
						<path class="st6" d="M155.99,189.77c-0.61-4.11-19.15-22.55-25.67-26.58c-0.11,0.2-0.22,0.4-0.33,0.6
						c-2.14,4.02-4,8.4-5.6,12.86c4.45,2.64,10.31,4.48,14.25,6.39C143.68,185.49,150.42,189.55,155.99,189.77z" />
						<path class="st6" d="M227.55,162.47c3.8-15.4,5.76-31.58,7.88-47.35c0.73-5.38,1.23-11.49,2.17-17.24
						c-6.42,0.2-15.34,0.99-25.81,3.25c1.05,11.48,4.21,22.69,7.1,33.86C221.25,144.11,223.26,154.09,227.55,162.47z" />
					</g>
					<g>
						<circle class="st7" cx="203.39" cy="235.94" r="12.74" />
						<circle class="st3" cx="203.39" cy="235.94" r="4.01" />
					</g>
					<path class="st7" d="M249.85,285.1c-4.09,0-21.42-1.55-23.59,2.67c-2.36,4.61,7.89,13.59,10.8,15.79
					c3.11,2.35,7.12,3.93,10.59,5.44C249.91,302.73,248.43,292.58,249.85,285.1z" />
					<g>
						<g>
							<path class="st7" d="M244.75,306.58c1.25,11.11-1.82,23.04-10.55,30.5c-1.94,1.66-4.1,3.04-6.43,4.07
							c-2.68,1.18-5.55,1.79-8.46,2.08c-5.54,0.55-11.3,0.37-16.8-0.55c-5.91-0.98-11.66-3.08-16.34-6.9c-0.61-0.5-1.31,0.51-0.7,1
							c8.8,7.17,21,8.41,31.94,7.81c3.16-0.17,6.31-0.63,9.3-1.7c2.47-0.88,4.78-2.17,6.88-3.74c4.31-3.23,7.64-7.66,9.74-12.6
							c2.69-6.33,3.34-13.29,2.65-20.08C245.89,305.69,244.67,305.8,244.75,306.58L244.75,306.58z" />
						</g>
					</g>
					<path class="st8" d="M209.73,286.95c-42.25-4.01-85.52,3.28-124.12,20.92" />
					<path class="st8" d="M209.85,300.83c-51.92,6.89-102.39,24.5-147.33,51.4" />
					<path class="st8" d="M212.03,312.67c-57.65,22.5-109.46,59.78-149.1,107.29" />
				</g>
				<path class="st9" d="M245.77,97.91c-2.51-0.11-6.83-0.18-12.5,0.19c-0.42,0.03-0.83,0.05-1.26,0.09
				c-0.66,0.05-1.34,0.11-2.03,0.17c-0.49,0.04-0.99,0.09-1.5,0.14c-0.72,0.07-1.44,0.14-2.19,0.23c-0.49,0.06-1,0.13-1.5,0.19
				c-1.37,0.17-2.77,0.37-4.23,0.6c-0.58,0.09-1.17,0.18-1.76,0.28c-0.83,0.14-1.66,0.29-2.51,0.44c-0.63,0.12-1.28,0.24-1.92,0.37
				c-7.56,1.5-15.97,3.74-24.87,7.15c-0.45,0.17-0.87,0.37-1.31,0.55c-6.7-16.56-22.63-28.22-41.23-28.22
				c-24.64,0-44.62,20.44-44.62,45.66c0,18.39,10.65,34.21,25.97,41.44c-0.45,0.94-0.88,1.89-1.3,2.86
				c-0.01,0.01-0.01,0.03-0.02,0.04c-0.93,2.15-1.79,4.34-2.59,6.56c0,0,0,0,0,0.01v0c-0.57,1.57-1.1,3.15-1.6,4.73l0,0
				c-1.92,6.01-3.39,11.95-4.5,17.14c0,0,0,0.01,0,0.01c-0.22,1.02-0.42,2.01-0.61,2.96c-0.01,0.04-0.02,0.08-0.02,0.12
				c-1.56,7.88-2.18,13.36-2.18,13.36s-35.28,13.83-48.42,24.21c-13.14,10.38-13.14,10.38-13.14,10.38l38.74,11.07
				c0,0-16.6,20.06-21.44,26.29c-4.84,6.23-6.92,11.07-6.92,11.07H96.8c0,0-0.57,0.9-1.49,2.4c-0.22,0.37-0.47,0.76-0.73,1.2
				c-0.11,0.19-0.24,0.39-0.35,0.59c-0.11,0.18-0.21,0.35-0.32,0.54c-2.99,1.22-5.96,2.49-8.9,3.83c-0.73,0.33-1.05,1.2-0.72,1.93
				c0.25,0.54,0.78,0.85,1.33,0.85c0.2,0,0.41-0.04,0.61-0.13c1.73-0.79,3.47-1.53,5.21-2.28c-0.16,0.28-0.32,0.56-0.48,0.84
				c-0.11,0.2-0.22,0.39-0.34,0.59c-0.44,0.77-0.89,1.57-1.34,2.39c-0.11,0.19-0.22,0.39-0.32,0.59c-0.35,0.63-0.7,1.27-1.05,1.93
				c-0.16,0.3-0.32,0.59-0.48,0.89c-0.31,0.58-0.61,1.15-0.92,1.74c-0.17,0.32-0.33,0.63-0.49,0.95c-0.33,0.63-0.64,1.27-0.96,1.9
				c-0.13,0.25-0.25,0.5-0.38,0.76c-0.43,0.89-0.86,1.77-1.26,2.64c-0.06,0.13-0.11,0.25-0.17,0.37c-0.34,0.74-0.66,1.47-0.98,2.2
				c-0.12,0.28-0.23,0.54-0.34,0.82c-0.24,0.57-0.47,1.14-0.68,1.7c-0.11,0.29-0.22,0.57-0.33,0.86c-0.2,0.55-0.39,1.09-0.56,1.61
				c-0.08,0.24-0.17,0.49-0.24,0.73c-0.23,0.74-0.44,1.47-0.6,2.14c-0.35,1.47-0.64,2.91-0.88,4.3c-0.31,1.75-0.54,3.42-0.72,5
				c-5.45,2.91-10.83,5.94-16.12,9.11c-0.69,0.41-0.92,1.31-0.5,2c0.27,0.46,0.76,0.71,1.25,0.71c0.26,0,0.52-0.07,0.75-0.21
				c4.69-2.81,9.47-5.5,14.29-8.11c-0.02,0.27-0.04,0.55-0.06,0.8c-0.03,0.53-0.06,1.04-0.08,1.53c-0.04,0.97-0.06,1.85-0.07,2.63
				c0,0.39,0,0.75,0,1.08c0.01,1.66,0.08,2.61,0.08,2.61s5.96-2.38,15.96-4.89c0.71-0.18,1.45-0.36,2.2-0.54
				c1.51-0.36,3.1-0.72,4.77-1.07c5.83-1.23,12.56-2.37,19.97-3.13c2.12-0.22,4.29-0.41,6.51-0.56c3.33-0.23,6.77-0.37,10.3-0.41
				c0.02,0,0.03,0,0.05,0c-1.52,3.35-2.97,6.76-4.33,10.21c-26.36,18.58-50.32,40.54-71.05,65.39c-0.52,0.62-0.43,1.54,0.19,2.06
				c0.27,0.23,0.6,0.34,0.94,0.34c0.42,0,0.83-0.18,1.12-0.52c19.65-23.55,42.2-44.51,66.97-62.4c-3.29,9.07-5.79,18.15-6.88,26.35
				c-3.08,23.12-4.75,37.9-5.84,61.11c-0.66,14.07-0.76,29.2,0.97,43.03c1.25,10,1.51,10.33,12.61,11.69
				c13.42,1.65,27.86,1.94,41.41,1.91c21.52-0.05,49.62,2.53,72.49,2.17V97.91z" />
			</g>
		</g>
	</g>
</svg>